<?xml version="1.0" encoding="UTF-8"?>
<svg xmlns="http://www.w3.org/2000/svg" width="253" height="81">
   <defs>
      <style type="text/css">
    @namespace "http://www.w3.org/2000/svg";
    .line                 {fill: none; stroke: #181818; stroke-width: 1;}
    .bold-line            {stroke: #F0F0F0; shape-rendering: crispEdges; stroke-width: 2;}
    .thin-line            {stroke: #F0F0F0; shape-rendering: crispEdges}
    .filled               {fill: #181818; stroke: none;}
    text.terminal         {font-family: Verdana, Sans-serif;
                            font-size: 12px;
                            fill: #F0F0F0;
                            font-weight: bold;
                          }
    text.nonterminal      {font-family: Verdana, Sans-serif;
                            font-size: 12px;
                            fill: #F0F0F0;
                            font-weight: normal;
                          }
    text.regexp           {font-family: Verdana, Sans-serif;
                            font-size: 12px;
                            fill: #F0F0F0;
                            font-weight: normal;
                          }
    rect, circle, polygon {fill: #181818; stroke: #181818;}
    rect.terminal         {fill: #444444; stroke: #181818; stroke-width: 1;}
    rect.nonterminal      {fill: #555555; stroke: #181818; stroke-width: 1;}
    rect.text             {fill: none; stroke: none;}
    polygon.regexp        {fill: #5D5D5D; stroke: #181818; stroke-width: 1;}
  </style>
   </defs>
   <polygon points="9 17 1 13 1 21"/>
   <polygon points="17 17 9 13 9 21"/>
   <rect x="51" y="3" width="154" height="32" rx="10"/>
   <rect x="49"
         y="1"
         width="154"
         height="32"
         class="terminal"
         rx="10"/>
   <text class="terminal" x="59" y="21">'.\FastTransfer.exe'</text>
   <rect x="51" y="47" width="120" height="32" rx="10"/>
   <rect x="49"
         y="45"
         width="120"
         height="32"
         class="terminal"
         rx="10"/>
   <text class="terminal" x="59" y="65">'./fasttransfer'</text>
   <path class="line"
         d="m17 17 h2 m20 0 h10 m154 0 h10 m-194 0 h20 m174 0 h20 m-214 0 q10 0 10 10 m194 0 q0 -10 10 -10 m-204 10 v24 m194 0 v-24 m-194 24 q0 10 10 10 m174 0 q10 0 10 -10 m-184 10 h10 m120 0 h10 m0 0 h34 m23 -44 h-3"/>
   <polygon points="243 17 251 13 251 21"/>
   <polygon points="243 17 235 13 235 21"/>
</svg>
