<?xml version="1.0" encoding="UTF-8"?>
<svg xmlns="http://www.w3.org/2000/svg" width="957" height="221">
   <defs>
      <style type="text/css">
    @namespace "http://www.w3.org/2000/svg";
    .line                 {fill: none; stroke: #181818; stroke-width: 1;}
    .bold-line            {stroke: #F0F0F0; shape-rendering: crispEdges; stroke-width: 2;}
    .thin-line            {stroke: #F0F0F0; shape-rendering: crispEdges}
    .filled               {fill: #181818; stroke: none;}
    text.terminal         {font-family: Verdana, Sans-serif;
                            font-size: 12px;
                            fill: #F0F0F0;
                            font-weight: bold;
                          }
    text.nonterminal      {font-family: Verdana, Sans-serif;
                            font-size: 12px;
                            fill: #F0F0F0;
                            font-weight: normal;
                          }
    text.regexp           {font-family: Verdana, Sans-serif;
                            font-size: 12px;
                            fill: #F0F0F0;
                            font-weight: normal;
                          }
    rect, circle, polygon {fill: #181818; stroke: #181818;}
    rect.terminal         {fill: #333333; stroke: #181818; stroke-width: 1;}
    rect.nonterminal      {fill: #404040; stroke: #181818; stroke-width: 1;}
    rect.text             {fill: none; stroke: none;}
    polygon.regexp        {fill: #464646; stroke: #181818; stroke-width: 1;}
  </style>
   </defs>
   <polygon points="9 17 1 13 1 21"/>
   <polygon points="17 17 9 13 9 21"/>
   <rect x="31" y="3" width="180" height="32" rx="10"/>
   <rect x="29"
         y="1"
         width="180"
         height="32"
         class="terminal"
         rx="10"/>
   <text class="terminal" x="39" y="21">--sourceconnectiontype</text>
   <a xmlns:xlink="http://www.w3.org/1999/xlink"
      xlink:href="#SourceConnectionType"
      xlink:title="SourceConnectionType">
      <rect x="231" y="3" width="164" height="32"/>
      <rect x="229" y="1" width="164" height="32" class="nonterminal"/>
      <text class="nonterminal" x="239" y="21">SourceConnectionType</text>
   </a>
   <a xmlns:xlink="http://www.w3.org/1999/xlink"
      xlink:href="#SourceConnectionParameters"
      xlink:title="SourceConnectionParameters">
      <rect x="415" y="3" width="208" height="32"/>
      <rect x="413" y="1" width="208" height="32" class="nonterminal"/>
      <text class="nonterminal" x="423" y="21">SourceConnectionParameters</text>
   </a>
   <a xmlns:xlink="http://www.w3.org/1999/xlink"
      xlink:href="#SourceInfos"
      xlink:title="SourceInfos">
      <rect x="643" y="3" width="96" height="32"/>
      <rect x="641" y="1" width="96" height="32" class="nonterminal"/>
      <text class="nonterminal" x="651" y="21">SourceInfos</text>
   </a>
   <rect x="759" y="3" width="176" height="32" rx="10"/>
   <rect x="757"
         y="1"
         width="176"
         height="32"
         class="terminal"
         rx="10"/>
   <text class="terminal" x="767" y="21">--targetconnectiontype</text>
   <a xmlns:xlink="http://www.w3.org/1999/xlink"
      xlink:href="#TargetConnectionType"
      xlink:title="TargetConnectionType">
      <rect x="27" y="69" width="162" height="32"/>
      <rect x="25" y="67" width="162" height="32" class="nonterminal"/>
      <text class="nonterminal" x="35" y="87">TargetConnectionType</text>
   </a>
   <a xmlns:xlink="http://www.w3.org/1999/xlink"
      xlink:href="#TargetConnectionParameters"
      xlink:title="TargetConnectionParameters">
      <rect x="209" y="69" width="206" height="32"/>
      <rect x="207" y="67" width="206" height="32" class="nonterminal"/>
      <text class="nonterminal" x="217" y="87">TargetConnectionParameters</text>
   </a>
   <a xmlns:xlink="http://www.w3.org/1999/xlink"
      xlink:href="#TargetInfos"
      xlink:title="TargetInfos">
      <rect x="435" y="69" width="92" height="32"/>
      <rect x="433" y="67" width="92" height="32" class="nonterminal"/>
      <text class="nonterminal" x="443" y="87">TargetInfos</text>
   </a>
   <a xmlns:xlink="http://www.w3.org/1999/xlink"
      xlink:href="#ParallelParameters"
      xlink:title="ParallelParameters">
      <rect x="567" y="101" width="140" height="32"/>
      <rect x="565" y="99" width="140" height="32" class="nonterminal"/>
      <text class="nonterminal" x="575" y="119">ParallelParameters</text>
   </a>
   <a xmlns:xlink="http://www.w3.org/1999/xlink"
      xlink:href="#MappingParameters"
      xlink:title="MappingParameters">
      <rect x="767" y="101" width="146" height="32"/>
      <rect x="765" y="99" width="146" height="32" class="nonterminal"/>
      <text class="nonterminal" x="775" y="119">MappingParameters</text>
   </a>
   <a xmlns:xlink="http://www.w3.org/1999/xlink"
      xlink:href="#LogParameters"
      xlink:title="LogParameters">
      <rect x="593" y="187" width="116" height="32"/>
      <rect x="591" y="185" width="116" height="32" class="nonterminal"/>
      <text class="nonterminal" x="601" y="205">LogParameters</text>
   </a>
   <a xmlns:xlink="http://www.w3.org/1999/xlink"
      xlink:href="#LicenceParameters"
      xlink:title="LicenceParameters">
      <rect x="769" y="187" width="140" height="32"/>
      <rect x="767" y="185" width="140" height="32" class="nonterminal"/>
      <text class="nonterminal" x="777" y="205">LicenceParameters</text>
   </a>
   <path class="line"
         d="m17 17 h2 m0 0 h10 m180 0 h10 m0 0 h10 m164 0 h10 m0 0 h10 m208 0 h10 m0 0 h10 m96 0 h10 m0 0 h10 m176 0 h10 m2 0 l2 0 m2 0 l2 0 m2 0 l2 0 m-952 66 l2 0 m2 0 l2 0 m2 0 l2 0 m2 0 h10 m162 0 h10 m0 0 h10 m206 0 h10 m0 0 h10 m92 0 h10 m20 0 h10 m0 0 h150 m-180 0 h20 m160 0 h20 m-200 0 q10 0 10 10 m180 0 q0 -10 10 -10 m-190 10 v12 m180 0 v-12 m-180 12 q0 10 10 10 m160 0 q10 0 10 -10 m-170 10 h10 m140 0 h10 m40 -32 h10 m0 0 h156 m-186 0 h20 m166 0 h20 m-206 0 q10 0 10 10 m186 0 q0 -10 10 -10 m-196 10 v12 m186 0 v-12 m-186 12 q0 10 10 10 m166 0 q10 0 10 -10 m-176 10 h10 m146 0 h10 m22 -32 l2 0 m2 0 l2 0 m2 0 l2 0 m-404 86 l2 0 m2 0 l2 0 m2 0 l2 0 m22 0 h10 m0 0 h126 m-156 0 h20 m136 0 h20 m-176 0 q10 0 10 10 m156 0 q0 -10 10 -10 m-166 10 v12 m156 0 v-12 m-156 12 q0 10 10 10 m136 0 q10 0 10 -10 m-146 10 h10 m116 0 h10 m40 -32 h10 m0 0 h150 m-180 0 h20 m160 0 h20 m-200 0 q10 0 10 10 m180 0 q0 -10 10 -10 m-190 10 v12 m180 0 v-12 m-180 12 q0 10 10 10 m160 0 q10 0 10 -10 m-170 10 h10 m140 0 h10 m23 -32 h-3"/>
   <polygon points="947 169 955 165 955 173"/>
   <polygon points="947 169 939 165 939 173"/>
</svg>
