<?xml version="1.0" encoding="UTF-8"?>
<svg xmlns="http://www.w3.org/2000/svg" width="1015" height="123">
   <defs>
      <style type="text/css">
    @namespace "http://www.w3.org/2000/svg";
    .line                 {fill: none; stroke: #181818; stroke-width: 1;}
    .bold-line            {stroke: #F0F0F0; shape-rendering: crispEdges; stroke-width: 2;}
    .thin-line            {stroke: #F0F0F0; shape-rendering: crispEdges}
    .filled               {fill: #181818; stroke: none;}
    text.terminal         {font-family: Verdana, Sans-serif;
                            font-size: 12px;
                            fill: #F0F0F0;
                            font-weight: bold;
                          }
    text.nonterminal      {font-family: Verdana, Sans-serif;
                            font-size: 12px;
                            fill: #F0F0F0;
                            font-weight: normal;
                          }
    text.regexp           {font-family: Verdana, Sans-serif;
                            font-size: 12px;
                            fill: #F0F0F0;
                            font-weight: normal;
                          }
    rect, circle, polygon {fill: #181818; stroke: #181818;}
    rect.terminal         {fill: #444444; stroke: #181818; stroke-width: 1;}
    rect.nonterminal      {fill: #555555; stroke: #181818; stroke-width: 1;}
    rect.text             {fill: none; stroke: none;}
    polygon.regexp        {fill: #5D5D5D; stroke: #181818; stroke-width: 1;}
  </style>
   </defs>
   <polygon points="9 17 1 13 1 21"/>
   <polygon points="17 17 9 13 9 21"/>
   <rect x="31" y="3" width="134" height="32" rx="10"/>
   <rect x="29"
         y="1"
         width="134"
         height="32"
         class="terminal"
         rx="10"/>
   <text class="terminal" x="39" y="21">--connectiontype</text>
   <a xmlns:xlink="http://www.w3.org/1999/xlink"
      xlink:href="#ConnectionType"
      xlink:title="ConnectionType">
      <rect x="185" y="3" width="122" height="32"/>
      <rect x="183" y="1" width="122" height="32" class="nonterminal"/>
      <text class="nonterminal" x="193" y="21">ConnectionType</text>
   </a>
   <a xmlns:xlink="http://www.w3.org/1999/xlink"
      xlink:href="#SourceConnectionParameters"
      xlink:title="SourceConnectionParameters">
      <rect x="327" y="3" width="208" height="32"/>
      <rect x="325" y="1" width="208" height="32" class="nonterminal"/>
      <text class="nonterminal" x="335" y="21">SourceConnectionParameters</text>
   </a>
   <a xmlns:xlink="http://www.w3.org/1999/xlink"
      xlink:href="#TargetConnectionParameters"
      xlink:title="TargetConnectionParameters">
      <rect x="555" y="3" width="206" height="32"/>
      <rect x="553" y="1" width="206" height="32" class="nonterminal"/>
      <text class="nonterminal" x="563" y="21">TargetConnectionParameters</text>
   </a>
   <a xmlns:xlink="http://www.w3.org/1999/xlink"
      xlink:href="#SourceInfos"
      xlink:title="SourceInfos">
      <rect x="781" y="3" width="96" height="32"/>
      <rect x="779" y="1" width="96" height="32" class="nonterminal"/>
      <text class="nonterminal" x="789" y="21">SourceInfos</text>
   </a>
   <a xmlns:xlink="http://www.w3.org/1999/xlink"
      xlink:href="#OutputInfos"
      xlink:title="OutputInfos">
      <rect x="897" y="3" width="96" height="32"/>
      <rect x="895" y="1" width="96" height="32" class="nonterminal"/>
      <text class="nonterminal" x="905" y="21">OutputInfos</text>
   </a>
   <a xmlns:xlink="http://www.w3.org/1999/xlink"
      xlink:href="#AdvancedParameters"
      xlink:title="AdvancedParameters">
      <rect x="637" y="89" width="154" height="32"/>
      <rect x="635" y="87" width="154" height="32" class="nonterminal"/>
      <text class="nonterminal" x="645" y="107">AdvancedParameters</text>
   </a>
   <a xmlns:xlink="http://www.w3.org/1999/xlink"
      xlink:href="#LogParameters"
      xlink:title="LogParameters">
      <rect x="851" y="89" width="116" height="32"/>
      <rect x="849" y="87" width="116" height="32" class="nonterminal"/>
      <text class="nonterminal" x="859" y="107">LogParameters</text>
   </a>
   <path class="line"
         d="m17 17 h2 m0 0 h10 m134 0 h10 m0 0 h10 m122 0 h10 m0 0 h10 m208 0 h10 m0 0 h10 m206 0 h10 m0 0 h10 m96 0 h10 m0 0 h10 m96 0 h10 m2 0 l2 0 m2 0 l2 0 m2 0 l2 0 m-420 54 l2 0 m2 0 l2 0 m2 0 l2 0 m22 0 h10 m0 0 h164 m-194 0 h20 m174 0 h20 m-214 0 q10 0 10 10 m194 0 q0 -10 10 -10 m-204 10 v12 m194 0 v-12 m-194 12 q0 10 10 10 m174 0 q10 0 10 -10 m-184 10 h10 m154 0 h10 m40 -32 h10 m0 0 h126 m-156 0 h20 m136 0 h20 m-176 0 q10 0 10 10 m156 0 q0 -10 10 -10 m-166 10 v12 m156 0 v-12 m-156 12 q0 10 10 10 m136 0 q10 0 10 -10 m-146 10 h10 m116 0 h10 m23 -32 h-3"/>
   <polygon points="1005 71 1013 67 1013 75"/>
   <polygon points="1005 71 997 67 997 75"/>
</svg>
