<?xml version="1.0" encoding="UTF-8"?>
<svg xmlns="http://www.w3.org/2000/svg" width="281" height="81">
   <defs>
      <style type="text/css">
    @namespace "http://www.w3.org/2000/svg";
    .line                 {fill: none; stroke: #181818; stroke-width: 1;}
    .bold-line            {stroke: #F0F0F0; shape-rendering: crispEdges; stroke-width: 2;}
    .thin-line            {stroke: #F0F0F0; shape-rendering: crispEdges}
    .filled               {fill: #181818; stroke: none;}
    text.terminal         {font-family: Verdana, Sans-serif;
                            font-size: 12px;
                            fill: #F0F0F0;
                            font-weight: bold;
                          }
    text.nonterminal      {font-family: Verdana, Sans-serif;
                            font-size: 12px;
                            fill: #F0F0F0;
                            font-weight: normal;
                          }
    text.regexp           {font-family: Verdana, Sans-serif;
                            font-size: 12px;
                            fill: #F0F0F0;
                            font-weight: normal;
                          }
    rect, circle, polygon {fill: #181818; stroke: #181818;}
    rect.terminal         {fill: #333333; stroke: #181818; stroke-width: 1;}
    rect.nonterminal      {fill: #404040; stroke: #181818; stroke-width: 1;}
    rect.text             {fill: none; stroke: none;}
    polygon.regexp        {fill: #464646; stroke: #181818; stroke-width: 1;}
  </style>
   </defs>
   <polygon points="9 17 1 13 1 21"/>
   <polygon points="17 17 9 13 9 21"/>
   <rect x="31" y="3" width="78" height="32" rx="10"/>
   <rect x="29"
         y="1"
         width="78"
         height="32"
         class="terminal"
         rx="10"/>
   <text class="terminal" x="39" y="21">--license</text>
   <a xmlns:xlink="http://www.w3.org/1999/xlink"
      xlink:href="#licenseFile"
      xlink:title="licenseFile">
      <rect x="149" y="3" width="84" height="32"/>
      <rect x="147" y="1" width="84" height="32" class="nonterminal"/>
      <text class="nonterminal" x="157" y="21">licenseFile</text>
   </a>
   <a xmlns:xlink="http://www.w3.org/1999/xlink"
      xlink:href="#licenseUrl"
      xlink:title="licenseUrl">
      <rect x="149" y="47" width="80" height="32"/>
      <rect x="147" y="45" width="80" height="32" class="nonterminal"/>
      <text class="nonterminal" x="157" y="65">licenseUrl</text>
   </a>
   <path class="line"
         d="m17 17 h2 m0 0 h10 m78 0 h10 m20 0 h10 m84 0 h10 m-124 0 h20 m104 0 h20 m-144 0 q10 0 10 10 m124 0 q0 -10 10 -10 m-134 10 v24 m124 0 v-24 m-124 24 q0 10 10 10 m104 0 q10 0 10 -10 m-114 10 h10 m80 0 h10 m0 0 h4 m23 -44 h-3"/>
   <polygon points="271 17 279 13 279 21"/>
   <polygon points="271 17 263 13 263 21"/>
</svg>
