<?xml version="1.0" encoding="UTF-8"?>
<svg xmlns="http://www.w3.org/2000/svg" width="523" height="57">
   <defs>
      <style type="text/css">
    @namespace "http://www.w3.org/2000/svg";
    .line                 {fill: none; stroke: #181818; stroke-width: 1;}
    .bold-line            {stroke: #F0F0F0; shape-rendering: crispEdges; stroke-width: 2;}
    .thin-line            {stroke: #F0F0F0; shape-rendering: crispEdges}
    .filled               {fill: #181818; stroke: none;}
    text.terminal         {font-family: Verdana, Sans-serif;
                            font-size: 12px;
                            fill: #F0F0F0;
                            font-weight: bold;
                          }
    text.nonterminal      {font-family: Verdana, Sans-serif;
                            font-size: 12px;
                            fill: #F0F0F0;
                            font-weight: normal;
                          }
    text.regexp           {font-family: Verdana, Sans-serif;
                            font-size: 12px;
                            fill: #F0F0F0;
                            font-weight: normal;
                          }
    rect, circle, polygon {fill: #181818; stroke: #181818;}
    rect.terminal         {fill: #333333; stroke: #181818; stroke-width: 1;}
    rect.nonterminal      {fill: #404040; stroke: #181818; stroke-width: 1;}
    rect.text             {fill: none; stroke: none;}
    polygon.regexp        {fill: #464646; stroke: #181818; stroke-width: 1;}
  </style>
   </defs>
   <polygon points="9 5 1 1 1 9"/>
   <polygon points="17 5 9 1 9 9"/>
   <rect x="51" y="23" width="68" height="32" rx="10"/>
   <rect x="49"
         y="21"
         width="68"
         height="32"
         class="terminal"
         rx="10"/>
   <text class="terminal" x="59" y="41">--runid</text>
   <a xmlns:xlink="http://www.w3.org/1999/xlink"
      xlink:href="#RunId"
      xlink:title="RunId">
      <rect x="139" y="23" width="56" height="32"/>
      <rect x="137" y="21" width="56" height="32" class="nonterminal"/>
      <text class="nonterminal" x="147" y="41">RunId</text>
   </a>
   <rect x="255" y="23" width="106" height="32" rx="10"/>
   <rect x="253"
         y="21"
         width="106"
         height="32"
         class="terminal"
         rx="10"/>
   <text class="terminal" x="263" y="41">--settingsfile</text>
   <a xmlns:xlink="http://www.w3.org/1999/xlink"
      xlink:href="#SettingsFile"
      xlink:title="SettingsFile">
      <rect x="381" y="23" width="94" height="32"/>
      <rect x="379" y="21" width="94" height="32" class="nonterminal"/>
      <text class="nonterminal" x="389" y="41">SettingsFile</text>
   </a>
   <path class="line"
         d="m17 5 h2 m20 0 h10 m0 0 h154 m-184 0 h20 m164 0 h20 m-204 0 q10 0 10 10 m184 0 q0 -10 10 -10 m-194 10 v12 m184 0 v-12 m-184 12 q0 10 10 10 m164 0 q10 0 10 -10 m-174 10 h10 m68 0 h10 m0 0 h10 m56 0 h10 m40 -32 h10 m0 0 h230 m-260 0 h20 m240 0 h20 m-280 0 q10 0 10 10 m260 0 q0 -10 10 -10 m-270 10 v12 m260 0 v-12 m-260 12 q0 10 10 10 m240 0 q10 0 10 -10 m-250 10 h10 m106 0 h10 m0 0 h10 m94 0 h10 m23 -32 h-3"/>
   <polygon points="513 5 521 1 521 9"/>
   <polygon points="513 5 505 1 505 9"/>
</svg>
