<?xml version="1.0" encoding="UTF-8"?>
<svg xmlns="http://www.w3.org/2000/svg" width="1619" height="257">
   <defs>
      <style type="text/css">
    @namespace "http://www.w3.org/2000/svg";
    .line                 {fill: none; stroke: #181818; stroke-width: 1;}
    .bold-line            {stroke: #F0F0F0; shape-rendering: crispEdges; stroke-width: 2;}
    .thin-line            {stroke: #F0F0F0; shape-rendering: crispEdges}
    .filled               {fill: #181818; stroke: none;}
    text.terminal         {font-family: Verdana, Sans-serif;
                            font-size: 12px;
                            fill: #F0F0F0;
                            font-weight: bold;
                          }
    text.nonterminal      {font-family: Verdana, Sans-serif;
                            font-size: 12px;
                            fill: #F0F0F0;
                            font-weight: normal;
                          }
    text.regexp           {font-family: Verdana, Sans-serif;
                            font-size: 12px;
                            fill: #F0F0F0;
                            font-weight: normal;
                          }
    rect, circle, polygon {fill: #181818; stroke: #181818;}
    rect.terminal         {fill: #444444; stroke: #181818; stroke-width: 1;}
    rect.nonterminal      {fill: #555555; stroke: #181818; stroke-width: 1;}
    rect.text             {fill: none; stroke: none;}
    polygon.regexp        {fill: #5D5D5D; stroke: #181818; stroke-width: 1;}
  </style>
   </defs>
   <polygon points="9 17 1 13 1 21"/>
   <polygon points="17 17 9 13 9 21"/>
   <rect x="71" y="3" width="120" height="32" rx="10"/>
   <rect x="69"
         y="1"
         width="120"
         height="32"
         class="terminal"
         rx="10"/>
   <text class="terminal" x="79" y="21">--sourceserver</text>
   <rect x="231" y="3" width="50" height="32" rx="10"/>
   <rect x="229"
         y="1"
         width="50"
         height="32"
         class="terminal"
         rx="10"/>
   <text class="terminal" x="239" y="21">Host</text>
   <rect x="231" y="47" width="84" height="32" rx="10"/>
   <rect x="229"
         y="45"
         width="84"
         height="32"
         class="terminal"
         rx="10"/>
   <text class="terminal" x="239" y="65">Host:Port</text>
   <rect x="231" y="91" width="156" height="32" rx="10"/>
   <rect x="229"
         y="89"
         width="156"
         height="32"
         class="terminal"
         rx="10"/>
   <text class="terminal" x="239" y="109">Host\InstanceName</text>
   <rect x="231" y="135" width="170" height="32" rx="10"/>
   <rect x="229"
         y="133"
         width="170"
         height="32"
         class="terminal"
         rx="10"/>
   <text class="terminal" x="239" y="153">Host:Port/TNSService</text>
   <rect x="461" y="35" width="134" height="32" rx="10"/>
   <rect x="459"
         y="33"
         width="134"
         height="32"
         class="terminal"
         rx="10"/>
   <text class="terminal" x="469" y="53">--sourceprovider</text>
   <a xmlns:xlink="http://www.w3.org/1999/xlink"
      xlink:href="#OLEDBProvider"
      xlink:title="OLEDBProvider">
      <rect x="615" y="35" width="114" height="32"/>
      <rect x="613" y="33" width="114" height="32" class="nonterminal"/>
      <text class="nonterminal" x="623" y="53">OLEDBProvider</text>
   </a>
   <rect x="71" y="179" width="100" height="32" rx="10"/>
   <rect x="69"
         y="177"
         width="100"
         height="32"
         class="terminal"
         rx="10"/>
   <text class="terminal" x="79" y="197">--sourcedsn</text>
   <a xmlns:xlink="http://www.w3.org/1999/xlink"
      xlink:href="#DSNName"
      xlink:title="DSNName">
      <rect x="191" y="179" width="82" height="32"/>
      <rect x="189" y="177" width="82" height="32" class="nonterminal"/>
      <text class="nonterminal" x="199" y="197">DSNName</text>
   </a>
   <rect x="809" y="3" width="126" height="32" rx="10"/>
   <rect x="807"
         y="1"
         width="126"
         height="32"
         class="terminal"
         rx="10"/>
   <text class="terminal" x="817" y="21">--sourcetrusted</text>
   <rect x="809" y="47" width="106" height="32" rx="10"/>
   <rect x="807"
         y="45"
         width="106"
         height="32"
         class="terminal"
         rx="10"/>
   <text class="terminal" x="817" y="65">--sourceuser</text>
   <rect x="935" y="47" width="88" height="32" rx="10"/>
   <rect x="933"
         y="45"
         width="88"
         height="32"
         class="terminal"
         rx="10"/>
   <text class="terminal" x="943" y="65">Username</text>
   <rect x="1043" y="47" width="142" height="32" rx="10"/>
   <rect x="1041"
         y="45"
         width="142"
         height="32"
         class="terminal"
         rx="10"/>
   <text class="terminal" x="1051" y="65">--sourcepassword</text>
   <rect x="1205" y="47" width="86" height="32" rx="10"/>
   <rect x="1203"
         y="45"
         width="86"
         height="32"
         class="terminal"
         rx="10"/>
   <text class="terminal" x="1213" y="65">Password</text>
   <rect x="1331" y="3" width="138" height="32" rx="10"/>
   <rect x="1329"
         y="1"
         width="138"
         height="32"
         class="terminal"
         rx="10"/>
   <text class="terminal" x="1339" y="21">--sourcedatabase</text>
   <rect x="1489" y="3" width="82" height="32" rx="10"/>
   <rect x="1487"
         y="1"
         width="82"
         height="32"
         class="terminal"
         rx="10"/>
   <text class="terminal" x="1497" y="21">Database</text>
   <rect x="51" y="223" width="168" height="32" rx="10"/>
   <rect x="49"
         y="221"
         width="168"
         height="32"
         class="terminal"
         rx="10"/>
   <text class="terminal" x="59" y="241">--sourceconnectstring</text>
   <a xmlns:xlink="http://www.w3.org/1999/xlink"
      xlink:href="#ConnectString"
      xlink:title="ConnectString">
      <rect x="239" y="223" width="110" height="32"/>
      <rect x="237" y="221" width="110" height="32" class="nonterminal"/>
      <text class="nonterminal" x="247" y="241">ConnectString</text>
   </a>
   <path class="line"
         d="m17 17 h2 m40 0 h10 m120 0 h10 m20 0 h10 m50 0 h10 m0 0 h120 m-210 0 h20 m190 0 h20 m-230 0 q10 0 10 10 m210 0 q0 -10 10 -10 m-220 10 v24 m210 0 v-24 m-210 24 q0 10 10 10 m190 0 q10 0 10 -10 m-200 10 h10 m84 0 h10 m0 0 h86 m-200 -10 v20 m210 0 v-20 m-210 20 v24 m210 0 v-24 m-210 24 q0 10 10 10 m190 0 q10 0 10 -10 m-200 10 h10 m156 0 h10 m0 0 h14 m-200 -10 v20 m210 0 v-20 m-210 20 v24 m210 0 v-24 m-210 24 q0 10 10 10 m190 0 q10 0 10 -10 m-200 10 h10 m170 0 h10 m40 -132 h10 m0 0 h278 m-308 0 h20 m288 0 h20 m-328 0 q10 0 10 10 m308 0 q0 -10 10 -10 m-318 10 v12 m308 0 v-12 m-308 12 q0 10 10 10 m288 0 q10 0 10 -10 m-298 10 h10 m134 0 h10 m0 0 h10 m114 0 h10 m-698 -32 h20 m698 0 h20 m-738 0 q10 0 10 10 m718 0 q0 -10 10 -10 m-728 10 v156 m718 0 v-156 m-718 156 q0 10 10 10 m698 0 q10 0 10 -10 m-708 10 h10 m100 0 h10 m0 0 h10 m82 0 h10 m0 0 h476 m40 -176 h10 m126 0 h10 m0 0 h356 m-522 0 h20 m502 0 h20 m-542 0 q10 0 10 10 m522 0 q0 -10 10 -10 m-532 10 v24 m522 0 v-24 m-522 24 q0 10 10 10 m502 0 q10 0 10 -10 m-512 10 h10 m106 0 h10 m0 0 h10 m88 0 h10 m0 0 h10 m142 0 h10 m0 0 h10 m86 0 h10 m20 -44 h10 m138 0 h10 m0 0 h10 m82 0 h10 m-1560 0 h20 m1540 0 h20 m-1580 0 q10 0 10 10 m1560 0 q0 -10 10 -10 m-1570 10 v200 m1560 0 v-200 m-1560 200 q0 10 10 10 m1540 0 q10 0 10 -10 m-1550 10 h10 m168 0 h10 m0 0 h10 m110 0 h10 m0 0 h1222 m23 -220 h-3"/>
   <polygon points="1609 17 1617 13 1617 21"/>
   <polygon points="1609 17 1601 13 1601 21"/>
</svg>
