<?xml version="1.0" encoding="UTF-8"?>
<svg xmlns="http://www.w3.org/2000/svg" width="593" height="125">
   <defs>
      <style type="text/css">
    @namespace "http://www.w3.org/2000/svg";
    .line                 {fill: none; stroke: #181818; stroke-width: 1;}
    .bold-line            {stroke: #F0F0F0; shape-rendering: crispEdges; stroke-width: 2;}
    .thin-line            {stroke: #F0F0F0; shape-rendering: crispEdges}
    .filled               {fill: #181818; stroke: none;}
    text.terminal         {font-family: Verdana, Sans-serif;
                            font-size: 12px;
                            fill: #F0F0F0;
                            font-weight: bold;
                          }
    text.nonterminal      {font-family: Verdana, Sans-serif;
                            font-size: 12px;
                            fill: #F0F0F0;
                            font-weight: normal;
                          }
    text.regexp           {font-family: Verdana, Sans-serif;
                            font-size: 12px;
                            fill: #F0F0F0;
                            font-weight: normal;
                          }
    rect, circle, polygon {fill: #181818; stroke: #181818;}
    rect.terminal         {fill: #444444; stroke: #181818; stroke-width: 1;}
    rect.nonterminal      {fill: #555555; stroke: #181818; stroke-width: 1;}
    rect.text             {fill: none; stroke: none;}
    polygon.regexp        {fill: #5D5D5D; stroke: #181818; stroke-width: 1;}
  </style>
   </defs>
   <polygon points="9 17 1 13 1 21"/>
   <polygon points="17 17 9 13 9 21"/>
   <rect x="51" y="3" width="88" height="32" rx="10"/>
   <rect x="49"
         y="1"
         width="88"
         height="32"
         class="terminal"
         rx="10"/>
   <text class="terminal" x="59" y="21">--fileinput</text>
   <a xmlns:xlink="http://www.w3.org/1999/xlink"
      xlink:href="#FilePath"
      xlink:title="FilePath">
      <rect x="159" y="3" width="70" height="32"/>
      <rect x="157" y="1" width="70" height="32" class="nonterminal"/>
      <text class="nonterminal" x="167" y="21">FilePath</text>
   </a>
   <rect x="51" y="47" width="70" height="32" rx="10"/>
   <rect x="49"
         y="45"
         width="70"
         height="32"
         class="terminal"
         rx="10"/>
   <text class="terminal" x="59" y="65">--query</text>
   <a xmlns:xlink="http://www.w3.org/1999/xlink"
      xlink:href="#Query"
      xlink:title="Query">
      <rect x="141" y="47" width="58" height="32"/>
      <rect x="139" y="45" width="58" height="32" class="nonterminal"/>
      <text class="nonterminal" x="149" y="65">Query</text>
   </a>
   <rect x="51" y="91" width="128" height="32" rx="10"/>
   <rect x="49"
         y="89"
         width="128"
         height="32"
         class="terminal"
         rx="10"/>
   <text class="terminal" x="59" y="109">--sourceschema</text>
   <a xmlns:xlink="http://www.w3.org/1999/xlink"
      xlink:href="#SchemaName"
      xlink:title="SchemaName">
      <rect x="199" y="91" width="106" height="32"/>
      <rect x="197" y="89" width="106" height="32" class="nonterminal"/>
      <text class="nonterminal" x="207" y="109">SchemaName</text>
   </a>
   <rect x="325" y="91" width="110" height="32" rx="10"/>
   <rect x="323"
         y="89"
         width="110"
         height="32"
         class="terminal"
         rx="10"/>
   <text class="terminal" x="333" y="109">--sourcetable</text>
   <a xmlns:xlink="http://www.w3.org/1999/xlink"
      xlink:href="#TableName"
      xlink:title="TableName">
      <rect x="455" y="91" width="90" height="32"/>
      <rect x="453" y="89" width="90" height="32" class="nonterminal"/>
      <text class="nonterminal" x="463" y="109">TableName</text>
   </a>
   <path class="line"
         d="m17 17 h2 m20 0 h10 m88 0 h10 m0 0 h10 m70 0 h10 m0 0 h316 m-534 0 h20 m514 0 h20 m-554 0 q10 0 10 10 m534 0 q0 -10 10 -10 m-544 10 v24 m534 0 v-24 m-534 24 q0 10 10 10 m514 0 q10 0 10 -10 m-524 10 h10 m70 0 h10 m0 0 h10 m58 0 h10 m0 0 h346 m-524 -10 v20 m534 0 v-20 m-534 20 v24 m534 0 v-24 m-534 24 q0 10 10 10 m514 0 q10 0 10 -10 m-524 10 h10 m128 0 h10 m0 0 h10 m106 0 h10 m0 0 h10 m110 0 h10 m0 0 h10 m90 0 h10 m23 -88 h-3"/>
   <polygon points="583 17 591 13 591 21"/>
   <polygon points="583 17 575 13 575 21"/>
</svg>
