<?xml version="1.0" encoding="UTF-8"?>
<svg xmlns="http://www.w3.org/2000/svg" width="837" height="199">
   <defs>
      <style type="text/css">
    @namespace "http://www.w3.org/2000/svg";
    .line                 {fill: none; stroke: #181818; stroke-width: 1;}
    .bold-line            {stroke: #F0F0F0; shape-rendering: crispEdges; stroke-width: 2;}
    .thin-line            {stroke: #F0F0F0; shape-rendering: crispEdges}
    .filled               {fill: #181818; stroke: none;}
    text.terminal         {font-family: Verdana, Sans-serif;
                            font-size: 12px;
                            fill: #F0F0F0;
                            font-weight: bold;
                          }
    text.nonterminal      {font-family: Verdana, Sans-serif;
                            font-size: 12px;
                            fill: #F0F0F0;
                            font-weight: normal;
                          }
    text.regexp           {font-family: Verdana, Sans-serif;
                            font-size: 12px;
                            fill: #F0F0F0;
                            font-weight: normal;
                          }
    rect, circle, polygon {fill: #181818; stroke: #181818;}
    rect.terminal         {fill: #333333; stroke: #181818; stroke-width: 1;}
    rect.nonterminal      {fill: #404040; stroke: #181818; stroke-width: 1;}
    rect.text             {fill: none; stroke: none;}
    polygon.regexp        {fill: #464646; stroke: #181818; stroke-width: 1;}
  </style>
   </defs>
   <polygon points="9 17 1 13 1 21"/>
   <polygon points="17 17 9 13 9 21"/>
   <rect x="31" y="3" width="124" height="32" rx="10"/>
   <rect x="29"
         y="1"
         width="124"
         height="32"
         class="terminal"
         rx="10"/>
   <text class="terminal" x="39" y="21">--targetschema</text>
   <a xmlns:xlink="http://www.w3.org/1999/xlink"
      xlink:href="#SchemaName"
      xlink:title="SchemaName">
      <rect x="175" y="3" width="106" height="32"/>
      <rect x="173" y="1" width="106" height="32" class="nonterminal"/>
      <text class="nonterminal" x="183" y="21">SchemaName</text>
   </a>
   <rect x="301" y="3" width="106" height="32" rx="10"/>
   <rect x="299"
         y="1"
         width="106"
         height="32"
         class="terminal"
         rx="10"/>
   <text class="terminal" x="309" y="21">--targettable</text>
   <a xmlns:xlink="http://www.w3.org/1999/xlink"
      xlink:href="#TableName"
      xlink:title="TableName">
      <rect x="427" y="3" width="90" height="32"/>
      <rect x="425" y="1" width="90" height="32" class="nonterminal"/>
      <text class="nonterminal" x="435" y="21">TableName</text>
   </a>
   <rect x="557" y="35" width="98" height="32" rx="10"/>
   <rect x="555"
         y="33"
         width="98"
         height="32"
         class="terminal"
         rx="10"/>
   <text class="terminal" x="565" y="53">--loadmode</text>
   <rect x="695" y="35" width="70" height="32" rx="10"/>
   <rect x="693"
         y="33"
         width="70"
         height="32"
         class="terminal"
         rx="10"/>
   <text class="terminal" x="703" y="53">Append</text>
   <rect x="695" y="79" width="80" height="32" rx="10"/>
   <rect x="693"
         y="77"
         width="80"
         height="32"
         class="terminal"
         rx="10"/>
   <text class="terminal" x="703" y="97">Truncate</text>
   <rect x="567" y="165" width="96" height="32" rx="10"/>
   <rect x="565"
         y="163"
         width="96"
         height="32"
         class="terminal"
         rx="10"/>
   <text class="terminal" x="575" y="183">--batchsize</text>
   <rect x="683" y="165" width="106" height="32" rx="10"/>
   <rect x="681"
         y="163"
         width="106"
         height="32"
         class="terminal"
         rx="10"/>
   <text class="terminal" x="691" y="183">BatchSizeInt</text>
   <path class="line"
         d="m17 17 h2 m0 0 h10 m124 0 h10 m0 0 h10 m106 0 h10 m0 0 h10 m106 0 h10 m0 0 h10 m90 0 h10 m20 0 h10 m0 0 h248 m-278 0 h20 m258 0 h20 m-298 0 q10 0 10 10 m278 0 q0 -10 10 -10 m-288 10 v12 m278 0 v-12 m-278 12 q0 10 10 10 m258 0 q10 0 10 -10 m-268 10 h10 m98 0 h10 m20 0 h10 m70 0 h10 m0 0 h10 m-120 0 h20 m100 0 h20 m-140 0 q10 0 10 10 m120 0 q0 -10 10 -10 m-130 10 v24 m120 0 v-24 m-120 24 q0 10 10 10 m100 0 q10 0 10 -10 m-110 10 h10 m80 0 h10 m42 -76 l2 0 m2 0 l2 0 m2 0 l2 0 m-312 130 l2 0 m2 0 l2 0 m2 0 l2 0 m22 0 h10 m0 0 h232 m-262 0 h20 m242 0 h20 m-282 0 q10 0 10 10 m262 0 q0 -10 10 -10 m-272 10 v12 m262 0 v-12 m-262 12 q0 10 10 10 m242 0 q10 0 10 -10 m-252 10 h10 m96 0 h10 m0 0 h10 m106 0 h10 m23 -32 h-3"/>
   <polygon points="827 147 835 143 835 151"/>
   <polygon points="827 147 819 143 819 151"/>
</svg>
